<svg width="14" height="15" viewBox="0 0 14 15" fill="none" xmlns="http://www.w3.org/2000/svg">
<path fill-rule="evenodd" clip-rule="evenodd" d="M1 10.2V13.2002H4V14.2002H1C0.447716 14.2002 0 13.7525 0 13.2002V10.2H1ZM4 1.2002H1V4.20002H0V1.2002C0 0.647911 0.447715 0.200195 1 0.200195H4V1.2002ZM13 4.20002V1.2002H10V0.200195H13C13.5523 0.200195 14 0.647911 14 1.2002V4.20002H13ZM10 13.2002H13V10.2H14V13.2002C14 13.7525 13.5523 14.2002 13 14.2002H10V13.2002Z" fill="#015C9A"/>
<path d="M3 10.2001V6.48724H3.40986C3.5069 6.48724 3.56691 6.53245 3.58989 6.62286L3.63968 7.00404C3.78269 6.83544 3.94357 6.69739 4.12232 6.58987C4.30107 6.48236 4.50792 6.4286 4.74285 6.4286C5.00332 6.4286 5.214 6.49824 5.37488 6.63752C5.53831 6.7768 5.65577 6.96495 5.72728 7.20197C5.78346 7.06757 5.85496 6.95151 5.94178 6.85377C6.03116 6.75603 6.13075 6.67539 6.24056 6.61186C6.35036 6.54833 6.46655 6.50191 6.58913 6.47258C6.71425 6.44326 6.84066 6.4286 6.96834 6.4286C7.17263 6.4286 7.35394 6.46037 7.51226 6.5239C7.67314 6.58498 7.80848 6.67539 7.91829 6.79513C8.03065 6.91486 8.1162 7.06269 8.17493 7.23862C8.23366 7.41211 8.26303 7.61125 8.26303 7.83605V10.2001H7.57738V7.83605C7.57738 7.54528 7.51099 7.32536 7.3782 7.17631C7.24541 7.02481 7.05389 6.94907 6.80363 6.94907C6.69127 6.94907 6.58402 6.96861 6.48187 7.00771C6.38228 7.04436 6.29418 7.09934 6.21757 7.17264C6.14096 7.24595 6.07968 7.3388 6.03371 7.4512C5.9903 7.56116 5.96859 7.68944 5.96859 7.83605V10.2001H5.28294V7.83605C5.28294 7.53795 5.22038 7.31559 5.09525 7.16898C4.97012 7.02237 4.78754 6.94907 4.5475 6.94907C4.37896 6.94907 4.22319 6.99305 4.08018 7.08101C3.93718 7.16654 3.80567 7.28382 3.68565 7.43288V10.2001H3Z" fill="#015C9A"/>
<path d="M10.8353 6.46525C10.8864 6.46525 10.9259 6.47869 10.954 6.50557C10.9847 6.53245 11 6.57032 11 6.61919V6.90142H9.04264V6.74381C9.04264 6.71205 9.04903 6.67906 9.0618 6.64485C9.07712 6.61064 9.1001 6.57888 9.13074 6.54955L9.97727 5.74687C10.105 5.62469 10.2122 5.49885 10.299 5.36935C10.3884 5.23984 10.4331 5.10911 10.4331 4.97717C10.4331 4.85255 10.3948 4.75725 10.3182 4.69128C10.2416 4.62286 10.1471 4.58865 10.0347 4.58865C9.91471 4.58865 9.81895 4.61797 9.74745 4.67662C9.67594 4.73526 9.62232 4.81589 9.58657 4.91852C9.56103 4.9625 9.53166 4.99305 9.49847 5.01015C9.46527 5.02726 9.41547 5.03092 9.34908 5.02115L9.07712 4.97717C9.11542 4.71816 9.22267 4.5239 9.39887 4.39439C9.57508 4.26489 9.79469 4.20013 10.0577 4.20013C10.1905 4.20013 10.3105 4.21846 10.4178 4.25511C10.5276 4.29177 10.6208 4.34308 10.6974 4.40905C10.774 4.47503 10.8327 4.55566 10.8736 4.65096C10.917 4.74381 10.9387 4.84766 10.9387 4.9625C10.9387 5.06024 10.9221 5.15188 10.8889 5.2374C10.8583 5.32048 10.8161 5.39989 10.7625 5.47564C10.7089 5.55139 10.6476 5.62469 10.5787 5.69555C10.5097 5.76641 10.4369 5.8385 10.3603 5.9118L9.73595 6.51657C9.79724 6.50191 9.85725 6.48969 9.91598 6.47991C9.97727 6.47014 10.0347 6.46525 10.0884 6.46525H10.8353Z" fill="#015C9A"/>
</svg>
