<svg width="20" height="15" viewBox="0 0 20 15" fill="none" xmlns="http://www.w3.org/2000/svg">
<path d="M17.4613 12.8728C12.478 12.8728 7.52411 12.8728 2.53856 12.8728C2.53856 13.1211 2.53856 13.3716 2.53856 13.62C2.53856 14.1874 2.52498 14.2002 1.92979 14.2002C1.40928 14.2002 0.888777 14.2002 0.36827 14.2002C0.101228 14.2002 0.00391535 14.106 0.00391535 13.8555C0.00391535 12.7914 -0.00740001 11.7252 0.0084415 10.6611C0.024283 9.65699 0.218907 8.68284 0.800517 7.82644C1.0223 7.50101 1.09472 7.18842 1.09019 6.81374C1.08114 4.9104 1.08793 3.00919 1.09019 1.10798C1.09019 0.536332 1.45228 0.200195 2.04973 0.200195C7.35211 0.200195 12.6522 0.200195 17.9546 0.202336C18.5498 0.202336 18.9232 0.55346 18.9255 1.12725C18.9277 2.29623 18.9255 3.46522 18.9255 4.63421C18.9255 5.51416 18.9255 6.39411 18.93 7.27406C18.93 7.34257 18.9504 7.42393 18.9934 7.47746C19.6813 8.38738 19.9642 9.41934 19.9869 10.5155C20.0117 11.6353 19.9936 12.755 19.9936 13.8748C19.9936 14.1017 19.8918 14.1981 19.6474 14.1981C19.0431 14.2002 18.4366 14.2002 17.8324 14.1981C17.5608 14.1981 17.4635 14.1017 17.4635 13.8341C17.4613 13.5215 17.4613 13.2089 17.4613 12.8728ZM1.13771 10.3143C7.06923 10.3143 12.9759 10.3143 18.8915 10.3143C18.8644 10.1494 18.8417 10.0038 18.8146 9.85825C18.6924 9.19026 18.5023 8.54581 17.9886 8.04054C17.76 7.81359 17.5178 7.59949 17.2689 7.39182C16.7914 6.99145 16.2143 6.80518 15.5897 6.78163C13.9784 6.72382 12.3648 6.64889 10.7535 6.65317C8.6217 6.65959 6.48762 6.72382 4.3558 6.78591C3.58183 6.80946 2.90291 7.08137 2.36883 7.64017C1.95016 8.08122 1.64012 8.58221 1.40702 9.12603C1.24634 9.50498 1.12866 9.8925 1.13771 10.3143ZM2.11989 6.87798C2.33941 6.78591 2.53629 6.69599 2.74223 6.62105C2.86444 6.57609 2.90065 6.50972 2.90291 6.38555C2.90518 5.89312 2.89839 5.40069 2.94138 4.9104C2.99796 4.25953 3.36005 3.91697 4.0435 3.80992C4.18381 3.78851 4.32865 3.77781 4.47122 3.77781C5.84943 3.77566 7.22991 3.77567 8.60812 3.77567C9.13542 3.77567 9.63329 3.85702 10.0022 4.25953C10.4208 3.92125 10.5566 3.85702 11.0251 3.79707C11.1609 3.77995 11.2967 3.77781 11.4347 3.77781C12.0073 3.77566 12.5798 3.77567 13.1524 3.77567C13.9852 3.77781 14.818 3.7671 15.6508 3.78637C16.4451 3.8035 16.9159 4.16105 17.0584 4.82047C17.0901 4.97034 17.106 5.1245 17.1105 5.27865C17.1173 5.65332 17.1105 6.03014 17.1173 6.40481C17.1173 6.46048 17.1535 6.54398 17.1987 6.56753C17.4477 6.69385 17.7034 6.80732 17.9727 6.9315C17.9727 6.86513 17.9727 6.80518 17.9727 6.74523C17.9727 5.05384 17.9727 3.36031 17.975 1.66892C17.975 1.32208 17.9026 1.25143 17.5292 1.25143C15.8251 1.25143 14.121 1.25143 12.4169 1.25143C9.10826 1.24929 5.81096 1.24929 2.51366 1.24929C2.19004 1.24929 2.10857 1.32422 2.10857 1.63038C2.10631 3.32177 2.10631 5.0153 2.10631 6.70669C2.10631 6.76022 2.1131 6.8116 2.11989 6.87798ZM1.67859 13.3481C1.67859 12.9927 1.67633 12.6501 1.67859 12.3076C1.68085 12.0528 1.77138 11.9628 2.04294 11.9628C4.17702 11.9628 6.30884 11.9628 8.44291 11.9628C10.7852 11.9628 13.1252 11.9628 15.4675 11.9628C16.2867 11.9628 17.106 11.9629 17.9252 11.965C18.2081 11.965 18.2941 12.0528 18.2986 12.3225C18.3009 12.5002 18.2963 12.6801 18.2963 12.8578C18.2963 13.0205 18.2963 13.1832 18.2963 13.3438C18.543 13.3438 18.7535 13.3438 18.9707 13.3438C18.9707 12.6116 18.9707 11.8965 18.9707 11.1771C12.9962 11.1771 7.03755 11.1771 1.06756 11.1771C1.06756 11.9072 1.06756 12.6223 1.06756 13.3459C1.27124 13.3481 1.46133 13.3481 1.67859 13.3481ZM16.3591 5.9916C16.3343 5.65118 16.3275 5.36215 16.2913 5.07739C16.2573 4.80977 16.0627 4.67274 15.7911 4.63635C15.6123 4.6128 15.429 4.59995 15.248 4.59995C14.0531 4.59781 12.8559 4.59567 11.661 4.59995C11.446 4.59995 11.2333 4.6128 11.0206 4.63421C10.7852 4.65776 10.5793 4.75624 10.5249 4.98747C10.4684 5.22298 10.4616 5.46706 10.4276 5.73468C10.5453 5.73468 10.6155 5.73468 10.6856 5.73468C11.8805 5.73468 13.0777 5.73254 14.2726 5.73254C14.9583 5.73468 15.6508 5.69186 16.3591 5.9916ZM9.54051 5.70471C9.52466 5.49275 9.52014 5.31504 9.49298 5.13948C9.44772 4.84188 9.30515 4.69844 8.99963 4.64491C8.83443 4.61708 8.6647 4.60209 8.49497 4.60209C7.1937 4.59995 5.89243 4.59995 4.59116 4.60209C4.4418 4.60209 4.29244 4.61494 4.14534 4.63849C3.88509 4.67917 3.74251 4.79692 3.71083 5.04528C3.67236 5.33645 3.67236 5.63191 3.65652 5.94664C3.75383 5.91881 3.81719 5.90596 3.87603 5.88455C4.24492 5.75395 4.62511 5.69614 5.02115 5.69828C6.37447 5.70685 7.72778 5.70257 9.0811 5.70257C9.22141 5.70471 9.36399 5.70471 9.54051 5.70471Z" fill="#015C9A"/>
</svg>
